<svg width="87" height="59" viewBox="0 0 87 59" fill="none" xmlns="http://www.w3.org/2000/svg">
<path d="M29.6017 15.2614L86.6266 -0.000211011L71.3468 56.957L29.6017 15.2614Z" fill="#111920"/>
<path d="M15.3335 1.01037L57.2253 42.8524L0 58.1677L15.3335 1.01037Z" fill="#111920"/>
<path d="M14.0718 44.8614V29.3789L22.9532 27.0019C24.4877 26.5913 25.6734 26.6506 26.5104 27.1799C27.3629 27.705 27.7892 28.6728 27.7892 30.0832C27.7892 30.8525 27.6574 31.5449 27.3939 32.1604C27.1459 32.7717 26.8127 33.2936 26.3942 33.7261C26.9832 33.857 27.4482 34.1092 27.7892 34.4827C28.1301 34.8403 28.3006 35.4678 28.3006 36.3653C28.3006 37.8238 27.8357 39.0942 26.9057 40.1766C25.9912 41.2547 24.7047 42.0158 23.0462 42.4596L14.0718 44.8614ZM19.3495 33.9046L21.442 33.3446C22.186 33.1455 22.558 32.7013 22.558 32.0121C22.558 31.371 22.186 31.15 21.442 31.3491L19.3495 31.9092V33.9046ZM19.3495 39.5062L21.442 38.9462C22.186 38.7471 22.558 38.3029 22.558 37.6137C22.558 36.9726 22.186 36.7516 21.442 36.9508L19.3495 37.5108V39.5062Z" fill="#FEFEFE"/>
<path d="M28.0698 41.1152L33.8357 24.0894L39.6714 22.5276L45.4373 36.4671L39.5784 38.0351L38.5089 35.4364L34.9982 36.3759L33.9287 39.5471L28.0698 41.1152ZM35.6027 32.2474L37.8811 31.6376L36.7419 28.9854L35.6027 32.2474Z" fill="#FEFEFE"/>
<path d="M46.6078 36.1538V20.6712L58.5814 17.4667V21.6499L52.2342 23.3486V24.743L57.6979 23.2808V27.6082L52.2342 29.0704V30.4648L58.5814 28.7661V32.9493L46.6078 36.1538Z" fill="#FEFEFE"/>
<path d="M59.5041 32.7024V17.2198L67.9205 14.9673C69.2069 14.623 70.2687 14.5953 71.1057 14.8842C71.9427 15.157 72.5627 15.6803 72.9656 16.4539C73.3841 17.2074 73.5934 18.1371 73.5934 19.243C73.5934 20.2848 73.3299 21.2689 72.8029 22.1953C72.2914 23.1175 71.6714 23.9325 70.9429 24.6404C71.1134 24.7069 71.2452 24.7999 71.3382 24.9193C71.4312 25.0226 71.5087 25.1381 71.5707 25.2657L73.3376 29.0001L67.4787 30.5681L66.014 27.5222C65.9365 27.3506 65.8512 27.2452 65.7582 27.206C65.6652 27.1507 65.5335 27.1459 65.363 27.1916L65.1305 27.2538V31.1966L59.5041 32.7024ZM65.1305 22.71L66.5022 22.3429C67.4167 22.0981 67.874 21.5751 67.874 20.7737C67.874 20.3249 67.7655 20.0334 67.5485 19.8991C67.347 19.7607 67.0292 19.7496 66.5952 19.8658L65.1305 20.2578V22.71Z" fill="#FEFEFE"/>
</svg>
