<svg width="89" height="60" viewBox="0 0 89 60" fill="none" xmlns="http://www.w3.org/2000/svg">
<path fill-rule="evenodd" clip-rule="evenodd" d="M32.3822 16.917L15.4653 0L0 57.7173L56.406 42.6033L73.323 59.5203L88.7883 1.80298L32.3822 16.917Z" fill="#111920"/>
<path d="M14.8421 45.2205V29.1205L24.0336 26.5282C25.6216 26.0804 26.8488 26.1259 27.715 26.665C28.5972 27.1995 29.0384 28.2001 29.0384 29.6668C29.0384 30.4667 28.902 31.1885 28.6293 31.8321C28.3727 32.4712 28.0278 33.0184 27.5947 33.4739C28.2042 33.602 28.6855 33.8579 29.0384 34.2418C29.3913 34.6089 29.5677 35.2591 29.5677 36.1925C29.5677 37.7091 29.0865 39.0365 28.124 40.1746C27.1776 41.3082 25.8462 42.117 24.1298 42.6011L14.8421 45.2205ZM20.3041 33.7551L22.4696 33.1443C23.2396 32.9272 23.6246 32.4603 23.6246 31.7436C23.6246 31.0769 23.2396 30.8522 22.4696 31.0693L20.3041 31.6801V33.7551ZM20.3041 39.5801L22.4696 38.9693C23.2396 38.7522 23.6246 38.2853 23.6246 37.5686C23.6246 36.9019 23.2396 36.6772 22.4696 36.8943L20.3041 37.5051V39.5801ZM29.3288 41.1348L35.296 23.3519L41.3354 21.6486L47.3026 36.0657L41.2392 37.7758L40.1324 35.0879L36.4991 36.1126L35.3923 39.4248L29.3288 41.1348ZM37.1247 31.8112L39.4827 31.1461L38.3037 28.4037L37.1247 31.8112ZM48.514 35.7241V19.6241L60.9056 16.1293V20.4793L54.3368 22.3318V23.7818L59.9913 22.1871V26.6871L54.3368 28.2818V29.7318L60.9056 27.8793V32.2293L48.514 35.7241ZM61.8605 31.9599V15.8599L70.5708 13.4034C71.9021 13.0279 73.001 12.9847 73.8672 13.2737C74.7334 13.5461 75.375 14.0818 75.7921 14.8808C76.2252 15.6587 76.4417 16.6226 76.4417 17.7726C76.4417 18.856 76.169 19.8829 75.6236 20.8533C75.0943 21.8193 74.4527 22.6753 73.6987 23.4212C73.8752 23.4881 74.0115 23.583 74.1078 23.7059C74.204 23.812 74.2842 23.9311 74.3484 24.063L76.1771 27.9223L70.1136 29.6323L68.5977 26.4849C68.5175 26.3075 68.4293 26.199 68.333 26.1595C68.2368 26.1033 68.1005 26.1001 67.924 26.1499L67.6834 26.2177V30.3177L61.8605 31.9599ZM67.6834 21.4927L69.103 21.0924C70.0494 20.8254 70.5226 20.2753 70.5226 19.442C70.5226 18.9753 70.4103 18.6736 70.1858 18.537C69.9772 18.3958 69.6484 18.3885 69.1993 18.5152L67.6834 18.9427V21.4927Z" fill="white"/>
</svg>
